<?xml version="1.0" encoding="utf-8"?>
<!-- Generator: Adobe Illustrator 23.0.3, SVG Export Plug-In . SVG Version: 6.00 Build 0)  -->
<svg version="1.1" id="Calque_1" xmlns="http://www.w3.org/2000/svg" xmlns:xlink="http://www.w3.org/1999/xlink" x="0px" y="0px"
	 width="142.5px" height="24.8px" viewBox="0 0 142.5 24.8" style="enable-background:new 0 0 142.5 24.8;" xml:space="preserve">
<style type="text/css">
	.st0{fill:#002060;}
</style>
<g>
	<path class="st0" d="M7.7,18.5h2.7l4.1,5.5h9.1l-5.5-6.9c3.5-1.4,5.7-4.4,5.7-8.1c0-4.9-2.8-8.2-9.7-8.2H0V24h7.7V18.5z M7.7,7.3
		h5.1c1.8,0,2.5,0.9,2.5,2.3c0,1.4-0.8,2.4-2.4,2.4H7.7V7.3z"/>
</g>
<polygon class="st0" points="31.4,0.8 26,0.8 26,24 31.4,24 34.1,24 34.1,0.8 "/>
<path class="st0" d="M55.1,14.4c-1.5,1.7-3.3,2.8-5.7,2.8c-2.7,0-5-1.5-5-4.7s2.2-4.8,4.9-4.8c2.5,0,4.2,1.1,5.7,2.8l0,0l5-5.5
	c-1.1-1.5-2.8-2.9-5-3.9C53.5,0.4,51.6,0,49.4,0c-4,0-7.8,1.5-10.2,4.3c-1.7,2-2.8,4.7-2.8,8.1c0,3.5,1,6.2,2.8,8.3
	c2.3,2.7,5.9,4,10,4c2.3,0,4.3-0.5,6-1.2c2.3-1,3.9-2.5,4.9-4L55.1,14.4L55.1,14.4z"/>
<path class="st0" d="M86.3,17.5L79.1,0.8H70l-4.9,11.5l-5,11.7h5h3.6l1.3-2.9h9.3l1.2,2.9h5.8h2.8L86.3,17.5z M72.6,15l0.4-1L74.6,9
	l1.5,5.1l0.4,1H72.6z"/>
<path class="st0" d="M109.4,17.1c1.5-0.6,2.7-1.5,3.7-2.6c1.3-1.5,2-3.4,2-5.6c0-2.3-0.6-4.2-2-5.7c-1.6-1.6-4-2.5-7.7-2.5H94.1
	h-2.8V24h2.8H99v-5.5h2.7l4.1,5.5h7.3h1.8l-1.8-2.3L109.4,17.1z M104.2,11.9H99V7.3h5.1c1.8,0,2.5,0.9,2.5,2.3
	C106.6,10.9,105.8,11.9,104.2,11.9z"/>
<path class="st0" d="M130.9,0.8H120h-2V24h2h10.5c7.7,0,11.9-4.6,11.9-11.6C142.5,5.1,138.2,0.8,130.9,0.8z M130.8,17l-5.1,0V8h5.2
	c2.2,0,3.6,1.7,3.6,4.5C134.5,15.1,133.3,17,130.8,17z"/>
</svg>
